<svg width="22" height="22" viewBox="0 0 22 22" fill="none" xmlns="http://www.w3.org/2000/svg">
                        <path d="M11 13.5C12.3807 13.5 13.5 12.3807 13.5 11C13.5 9.61929 12.3807 8.5 11 8.5C9.61929 8.5 8.5 9.61929 8.5 11C8.5 12.3807 9.61929 13.5 11 13.5Z" stroke="black"/>
                        <path d="M3.41 14.14C3.27108 13.782 3.05217 13.4605 2.77 13.2C2.56518 13.0065 2.33261 12.8448 2.08 12.72C1.64586 12.5187 1.19809 12.3483 0.74 12.21L0.5 12.13V9.87L0.75 9.79C1.2067 9.65303 1.6515 9.47912 2.08 9.27C2.6885 8.989 3.16498 8.48386 3.41 7.86C3.68088 7.24615 3.70594 6.55177 3.48 5.92C3.31413 5.46687 3.11699 5.02581 2.89 4.6L2.78 4.37L4.37 2.78L4.6 2.89C5.02379 3.1211 5.46516 3.31838 5.92 3.48C6.55177 3.70594 7.24615 3.68088 7.86 3.41C8.48386 3.16498 8.989 2.6885 9.27 2.08C9.47912 1.6515 9.65303 1.2067 9.79 0.75C9.82119 0.668182 9.84789 0.584725 9.87 0.5H12.13C12.1521 0.581437 12.1789 0.661564 12.21 0.74C12.3454 1.20372 12.5193 1.65529 12.73 2.09C13.0147 2.69351 13.519 3.16562 14.14 3.41C14.7585 3.67825 15.4562 3.69971 16.09 3.47C16.5405 3.30956 16.9784 3.11569 17.4 2.89L17.63 2.78L19.22 4.37L19.11 4.6C18.883 5.02581 18.6859 5.46687 18.52 5.92C18.2941 6.55177 18.3191 7.24615 18.59 7.86C18.8308 8.48318 19.304 8.98864 19.91 9.27C20.3438 9.47478 20.7916 9.64855 21.25 9.79L21.5 9.87V12.13L21.26 12.21C20.7995 12.3453 20.3512 12.5193 19.92 12.73C19.4598 12.957 19.0713 13.307 18.7978 13.7412C18.5242 14.1754 18.3761 14.6768 18.37 15.19C18.371 15.4961 18.4217 15.8001 18.52 16.09C18.6841 16.5406 18.8813 16.9785 19.11 17.4C19.1426 17.4786 19.1793 17.5553 19.22 17.63L17.63 19.22L17.39 19.1C16.9684 18.8743 16.5305 18.6804 16.08 18.52C15.4522 18.2956 14.7627 18.317 14.15 18.58C13.5245 18.8314 13.0172 19.3101 12.73 19.92C12.5209 20.352 12.347 20.8001 12.21 21.26C12.1789 21.3384 12.1521 21.4186 12.13 21.5H9.87C9.84786 21.4186 9.82115 21.3384 9.79 21.26C9.65289 20.7969 9.479 20.3454 9.27 19.91C8.98525 19.3065 8.48095 18.8344 7.86 18.59C7.24145 18.3244 6.546 18.2994 5.91 18.52C5.46112 18.6884 5.02355 18.8854 4.6 19.11L4.37 19.22L2.78 17.63C2.82072 17.5553 2.85743 17.4786 2.89 17.4C3.1137 16.9809 3.30751 16.5464 3.47 16.1C3.71 15.4508 3.68849 14.7337 3.41 14.1M3.41 14.14L2.77 13.2L3.41 14.14Z" stroke="black"/>
                    </svg>