<svg width="21" height="20" viewBox="0 0 21 20" fill="none" xmlns="http://www.w3.org/2000/svg">
                        <path d="M8.1742 7.67325H8.17415L8.17425 7.68033C8.18393 8.36426 7.62085 8.93572 6.89094 8.93572H2.06646C1.35191 8.93572 0.783203 8.36412 0.783203 7.6868V2.95523C0.783203 2.26186 1.35445 1.69275 2.06646 1.69275H6.89094C7.60549 1.69275 8.1742 2.26435 8.1742 2.94167V7.67325Z" stroke="black"/>
                        <path d="M14.3879 9.53971L14.3872 9.539L10.9735 6.20456C10.9734 6.20446 10.9733 6.20437 10.9732 6.20427C10.4846 5.72482 10.4791 4.93375 10.9754 4.43561L14.3879 1.08877C14.8822 0.603977 15.7059 0.598592 16.2194 1.09064L19.6319 4.43748C20.1208 4.9169 20.1264 5.70819 19.63 6.20643L16.2175 9.55327C15.7232 10.038 14.901 10.0429 14.3879 9.53971Z" stroke="black"/>
                        <path d="M8.1742 18.0176H8.17415L8.17425 18.0248C8.18384 18.6925 7.62348 19.2665 6.89094 19.2665H2.06646C1.35191 19.2665 0.783203 18.6949 0.783203 18.0176V13.286C0.783203 12.6087 1.35191 12.0371 2.06646 12.0371H6.89094C7.60549 12.0371 8.1742 12.6087 8.1742 13.286V18.0176Z" stroke="black"/>
                        <path d="M18.9979 18.0176H18.9979L18.998 18.0248C19.0076 18.6925 18.4472 19.2665 17.7147 19.2665H12.8902C12.1756 19.2665 11.6069 18.6949 11.6069 18.0176V13.286C11.6069 12.6087 12.1756 12.0371 12.8902 12.0371H17.7147C18.4292 12.0371 18.9979 12.6087 18.9979 13.286V18.0176Z" stroke="black"/>
                    </svg>