<svg width="20" height="20" viewBox="0 0 20 20" fill="none" xmlns="http://www.w3.org/2000/svg">
                        <path d="M13.3602 15.3758L13.3667 15.3685L13.3729 15.361C13.9635 14.6408 14.3219 13.7195 14.3219 12.7076C14.3219 10.2814 12.2384 8.3275 9.76134 8.49502C7.65507 8.63274 5.94694 10.296 5.77566 12.3831C5.68212 13.5203 6.05727 14.5652 6.70913 15.3608L6.70911 15.3608L6.71216 15.3644C6.82402 15.4983 6.88356 15.6665 6.88356 15.8542V19.2708C6.88356 19.393 6.78541 19.5 6.64384 19.5H1.6888C1.02129 19.4886 0.5 18.9586 0.5 18.3255V9.07495C0.5 8.6449 0.675992 8.24252 0.990035 7.96289L0.990121 7.96298L0.998449 7.95522L8.2842 1.16431C8.75366 0.73614 9.35876 0.5 10 0.5C10.3098 0.5 10.6172 0.556658 10.8988 0.667708L11.0822 0.202566L10.8988 0.667708C11.1897 0.782434 11.4492 0.939627 11.6719 1.1482L11.6719 1.14822L11.6757 1.15168L18.9898 7.86249C18.9899 7.86259 18.99 7.86269 18.9901 7.86279C19.3173 8.16472 19.5 8.57371 19.5 8.99392V18.3255C19.5 18.9609 18.9772 19.4865 18.3151 19.4865H13.4384C13.2968 19.4865 13.1986 19.3795 13.1986 19.2573V15.8406C13.1986 15.6499 13.2597 15.4891 13.3602 15.3758Z" stroke="black"/>
                    </svg>