<svg width="36" height="36" viewBox="0 0 36 36" fill="none" xmlns="http://www.w3.org/2000/svg">
                    <rect width="36" height="36" rx="8.15422" fill="#181818"/>
                    <g clip-path="url(#clip0)">
                        <path d="M22.8592 23.9981C22.8592 26.8379 20.567 29.1429 17.7399 29.1429C14.9128 29.1429 12.6205 26.8379 12.6205 23.9981C12.6205 22.8265 13.0026 21.7568 13.6521 20.9035C13.6521 20.9035 13.6521 20.9035 13.6521 20.8908C13.6903 20.8399 13.7285 20.7889 13.7667 20.7507C13.9959 20.496 14.3015 20.114 14.327 20.1267C14.3525 20.1395 14.9765 20.4833 15.2184 20.6361C15.5877 20.8781 16.3645 21.4129 16.3645 21.4257C15.9698 21.9096 15.8424 22.1515 15.6769 22.3553C15.5241 22.5591 15.3967 22.7755 15.2948 23.0175C15.193 23.2977 15.1293 23.5906 15.1165 23.9089C15.0783 25.2843 16.1098 26.4941 17.4725 26.6214C19.0388 26.7742 20.3505 25.539 20.3505 23.9981C20.3505 23.0939 19.8921 22.2916 19.2044 21.8204H19.1916L18.886 21.6422L17.2942 20.6998L17.2814 20.6871L15.2439 19.49L14.4289 19.0061C14.3907 18.9806 14.3652 18.9679 14.327 18.9424C14.2124 18.8787 14.0978 18.8023 13.9959 18.7259C12.3149 17.5416 11.2197 15.5932 11.2197 13.3773C11.2197 9.77342 14.1232 6.85718 17.7144 6.85718C21.3056 6.85718 24.2091 9.77342 24.2091 13.3773C24.2091 15.4531 23.2413 17.2996 21.7386 18.4967C21.382 18.7769 20.8854 18.8278 20.4778 18.5858L18.4403 17.4142C18.2747 17.3251 18.1856 17.1468 18.1856 16.9558V14.498C18.1856 14.4471 18.2238 14.4089 18.2747 14.4089H19.2426V11.7855H18.2747C18.2238 11.7855 18.1856 11.7473 18.1856 11.6964V10.3974C18.1856 10.321 18.1219 10.2446 18.0328 10.2446C17.689 10.2446 16.8994 10.2446 16.5683 10.2446C16.4919 10.2446 16.4155 10.3083 16.4155 10.3974V16.8921C16.4155 17.1595 16.5556 17.4015 16.7848 17.5289L18.1729 18.3311L20.0958 19.4518C20.1213 19.4645 20.1467 19.4773 20.185 19.5027L20.2741 19.5537C20.325 19.5791 20.3632 19.6046 20.4142 19.6301C21.8914 20.5215 22.8592 22.1388 22.8592 23.9981Z" fill="white"/>
                    </g>
                    <defs>
                        <clipPath id="clip0">
                            <rect width="12.9894" height="22.2857" fill="white" transform="translate(11.2197 6.85718)"/>
                        </clipPath>
                    </defs>
                </svg>