<svg width="78" height="159" viewBox="0 0 78 159" fill="none" xmlns="http://www.w3.org/2000/svg">
                        <g clip-path="url(#clip0)">
                            <path fill-rule="evenodd" clip-rule="evenodd"
                                  d="M2.5 118.772L2.5 16.2276C2.5 11.9595 6.14238 8.5 10.6337 8.5L68.3663 8.5C72.8587 8.5 76.5 11.9595 76.5 16.2276L76.5 118.772C76.5 123.039 72.8587 126.5 68.3663 126.5L10.6337 126.5C6.14237 126.5 2.49999 123.039 2.5 118.772Z"
                                  fill="white" stroke="#181818"/>
                            <path fill-rule="evenodd" clip-rule="evenodd"
                                  d="M35.9755 115.071L35.9755 67.8935C35.9755 66.125 37.4071 64.6897 39.1724 64.6897L64.7021 64.6897C66.4674 64.6897 67.8989 66.125 67.8989 67.8935L67.8989 115.071C67.8989 116.84 66.4674 118.274 64.7021 118.274L39.1724 118.274C37.4071 118.274 35.9755 116.84 35.9755 115.071Z"
                                  stroke="#181818"/>
                            <path d="M13.85 49.7617L13.8382 49.738L13.7803 49.6803C13.5747 49.4753 13.3948 49.244 13.2286 48.9943L13.2287 48.9942L13.2232 48.9863C12.9453 48.5856 12.7411 48.176 12.5986 47.7784L12.5956 47.77L12.5923 47.7617C12.5123 47.5613 12.4456 47.3464 12.4068 47.1383C12.3956 47.0763 12.3819 47.0123 12.3699 46.9559C12.3682 46.948 12.3666 46.9404 12.365 46.9328C12.3511 46.8671 12.3391 46.8094 12.3299 46.7541L12.3267 46.7344L12.3247 46.7265C12.3243 46.7232 12.3238 46.7183 12.323 46.7107C12.3228 46.7084 12.3226 46.7059 12.3223 46.7031C12.3199 46.6783 12.3155 46.6336 12.3075 46.5857L12.3053 46.5726L12.3024 46.5595C12.2917 46.5112 12.2818 46.4076 12.2818 46.275L12.2818 46.2559L12.2804 46.2367C12.2738 46.1509 12.2669 46.089 12.2611 46.0369C12.253 45.9639 12.2471 45.9103 12.2471 45.8374C12.2471 45.8035 12.2503 45.7659 12.2566 45.7002L12.2572 45.6935C12.2624 45.6397 12.2696 45.5645 12.2705 45.4843C12.2818 45.3034 12.2908 45.1603 12.317 45.0204L12.319 45.0097L12.3205 44.999L12.3498 44.7935C12.3607 44.7514 12.369 44.7127 12.3751 44.684L12.3761 44.6795C12.385 44.6377 12.3901 44.6147 12.396 44.5942L12.4052 44.5619L12.41 44.5287C12.4154 44.4913 12.4279 44.4428 12.4512 44.3649L12.4533 44.358L12.4551 44.3511C13.091 41.9842 15.2597 40.2439 17.8293 40.2439C20.9009 40.2439 23.4004 42.7455 23.4004 45.8374C23.4004 48.9293 20.9009 51.4308 17.8293 51.4308C17.391 51.4308 16.9639 51.3803 16.5472 51.2805C16.436 51.2478 16.3158 51.2155 16.2008 51.1845C16.1557 51.1723 16.1114 51.1604 16.0687 51.1487C15.3139 50.9016 14.5002 50.4405 13.85 49.7617Z"
                                  stroke="black"/>
                            <path d="M17.8184 86.3315C14.747 86.3315 12.2473 83.8289 12.2473 80.7369C12.2473 77.6451 14.7467 75.1445 17.8184 75.1445C20.9019 75.1445 23.4006 77.6457 23.4006 80.7369C23.4006 83.8283 20.9016 86.3315 17.8184 86.3315Z"
                                  stroke="black"/>
                            <path d="M23.3982 98.1848C23.3982 101.276 20.8998 103.781 17.8215 103.781C14.7433 103.781 12.2449 101.276 12.2449 98.1848C12.2449 95.0929 14.7433 92.5891 17.8215 92.5891C20.8998 92.5891 23.3982 95.0929 23.3982 98.1848Z"
                                  stroke="black"/>
                            <path d="M17.8184 68.8806C14.7468 68.8806 12.2473 66.3791 12.2473 63.2872C12.2473 60.1954 14.7467 57.6948 17.8184 57.6948C20.9019 57.6948 23.4006 60.196 23.4006 63.2872C23.4006 66.3785 20.9017 68.8806 17.8184 68.8806Z"
                                  stroke="black"/>
                        </g>
                        <path d="M14 126H25V137C25 138.105 24.1046 139 23 139H19.5H16C14.8954 139 14 138.105 14 137V126Z"
                              fill="black"/>
                        <path d="M17 158.5V138" stroke="black"/>
                        <path d="M22 158.5V138" stroke="black"/>

                        <defs>
                            <clipPath id="clip0">
                                <rect width="128" height="77" fill="white" transform="translate(77.5 0.5) rotate(90)"/>
                            </clipPath>
                        </defs>
                    </svg>